# xmcd
#
# Track frame offsets:
#	150
#	11465
#	24063
#	35439
#	52164
#	67186
#	83613
#	98945
#	113035
#	127304
#	142710
#	154168
#	169254
#	182310
#	201262
#
# Disc length: 3093 seconds
#
# Revision: 0
# Processed by: cddbd v1.5PL3 Copyright (c) Steve Scherf et al.
# Submitted via: audiograbber 1.82.01
#
DISCID=c20c130f
DTITLE=Sierreños de Sinaloa - Pideme la luna
DYEAR=1900
DGENRE=
TTITLE0=Porque no fui tu amigo
TTITLE1=Pideme la luna
TTITLE2=Donna
TTITLE3=Quisiera amarte menos
TTITLE4=Eslabon por eslabon
TTITLE5=Maria antonia
TTITLE6=El cuervo y el escribano
TTITLE7=El borrego
TTITLE8=Hazlo por mi corazon
TTITLE9=Las gaviotas
TTITLE10=La culpable
TTITLE11=La cosecha
TTITLE12=Frente a su tumba
TTITLE13=La de la mochila azul
TTITLE14=Corrido de Daniel
EXTD=
EXTT0=
EXTT1=
EXTT2=
EXTT3=
EXTT4=
EXTT5=
EXTT6=
EXTT7=
EXTT8=
EXTT9=
EXTT10=
EXTT11=
EXTT12=
EXTT13=
EXTT14=
PLAYORDER=
